<?xml version="1.0" encoding="utf-8"?><!DOCTYPE svg PUBLIC "-//W3C//DTD SVG 1.1//EN" "http://www.w3.org/Graphics/SVG/1.1/DTD/svg11.dtd"><svg xmlns:xlink="http://www.w3.org/1999/xlink" xmlns="http://www.w3.org/2000/svg" id="map" viewBox="0 0 232 232" width="300" height="300" data-dot="8"><defs/><g fill="#f8e7f6"><rect x="32" y="176" width="24" height="24" transform="rotate(-90,44,188)"/><path clip-rule="evenodd" class="svgeye" d="M 16 160v 56h 56v -56zM 24 168h 40v 40h -40z" transform="rotate(-90,44,188)"/><rect x="176" y="32" width="24" height="24" transform="rotate(90,188,44)"/><path clip-rule="evenodd" class="svgeye" d="M 160 16v 56h 56v -56zM 168 24h 40v 40h -40z" transform="rotate(90,188,44)"/><rect x="32" y="32" width="24" height="24" transform="rotate(0,44,44)"/><path clip-rule="evenodd" class="svgeye" d="M 16 16v 56h 56v -56zM 24 24h 40v 40h -40z" transform="rotate(0,44,44)"/><rect x="80" y="16" width="8" height="8" transform="rotate(0,84,20)"/><rect x="88" y="16" width="8" height="8" transform="rotate(0,92,20)"/><rect x="104" y="16" width="8" height="8" transform="rotate(0,108,20)"/><rect x="136" y="16" width="8" height="8" transform="rotate(0,140,20)"/><rect x="80" y="24" width="8" height="8" transform="rotate(0,84,28)"/><rect x="88" y="24" width="8" height="8" transform="rotate(0,92,28)"/><rect x="104" y="24" width="8" height="8" transform="rotate(0,108,28)"/><rect x="120" y="24" width="8" height="8" transform="rotate(0,124,28)"/><rect x="128" y="24" width="8" height="8" transform="rotate(0,132,28)"/><rect x="136" y="24" width="8" height="8" transform="rotate(0,140,28)"/><rect x="80" y="32" width="8" height="8" transform="rotate(0,84,36)"/><rect x="104" y="32" width="8" height="8" transform="rotate(0,108,36)"/><rect x="136" y="32" width="8" height="8" transform="rotate(0,140,36)"/><rect x="144" y="32" width="8" height="8" transform="rotate(0,148,36)"/><rect x="80" y="40" width="8" height="8" transform="rotate(0,84,44)"/><rect x="88" y="40" width="8" height="8" transform="rotate(0,92,44)"/><rect x="136" y="40" width="8" height="8" transform="rotate(0,140,44)"/><rect x="144" y="40" width="8" height="8" transform="rotate(0,148,44)"/><rect x="80" y="48" width="8" height="8" transform="rotate(0,84,52)"/><rect x="96" y="48" width="8" height="8" transform="rotate(0,100,52)"/><rect x="120" y="48" width="8" height="8" transform="rotate(0,124,52)"/><rect x="128" y="48" width="8" height="8" transform="rotate(0,132,52)"/><rect x="136" y="48" width="8" height="8" transform="rotate(0,140,52)"/><rect x="88" y="56" width="8" height="8" transform="rotate(0,92,60)"/><rect x="96" y="56" width="8" height="8" transform="rotate(0,100,60)"/><rect x="112" y="56" width="8" height="8" transform="rotate(0,116,60)"/><rect x="128" y="56" width="8" height="8" transform="rotate(0,132,60)"/><rect x="136" y="56" width="8" height="8" transform="rotate(0,140,60)"/><rect x="80" y="64" width="8" height="8" transform="rotate(0,84,68)"/><rect x="96" y="64" width="8" height="8" transform="rotate(0,100,68)"/><rect x="112" y="64" width="8" height="8" transform="rotate(0,116,68)"/><rect x="128" y="64" width="8" height="8" transform="rotate(0,132,68)"/><rect x="144" y="64" width="8" height="8" transform="rotate(0,148,68)"/><rect x="80" y="72" width="8" height="8" transform="rotate(0,84,76)"/><rect x="88" y="72" width="8" height="8" transform="rotate(0,92,76)"/><rect x="104" y="72" width="8" height="8" transform="rotate(0,108,76)"/><rect x="120" y="72" width="8" height="8" transform="rotate(0,124,76)"/><rect x="128" y="72" width="8" height="8" transform="rotate(0,132,76)"/><rect x="144" y="72" width="8" height="8" transform="rotate(0,148,76)"/><rect x="24" y="80" width="8" height="8" transform="rotate(0,28,84)"/><rect x="32" y="80" width="8" height="8" transform="rotate(0,36,84)"/><rect x="48" y="80" width="8" height="8" transform="rotate(0,52,84)"/><rect x="64" y="80" width="8" height="8" transform="rotate(0,68,84)"/><rect x="72" y="80" width="8" height="8" transform="rotate(0,76,84)"/><rect x="104" y="80" width="8" height="8" transform="rotate(0,108,84)"/><rect x="112" y="80" width="8" height="8" transform="rotate(0,116,84)"/><rect x="128" y="80" width="8" height="8" transform="rotate(0,132,84)"/><rect x="136" y="80" width="8" height="8" transform="rotate(0,140,84)"/><rect x="144" y="80" width="8" height="8" transform="rotate(0,148,84)"/><rect x="160" y="80" width="8" height="8" transform="rotate(0,164,84)"/><rect x="176" y="80" width="8" height="8" transform="rotate(0,180,84)"/><rect x="184" y="80" width="8" height="8" transform="rotate(0,188,84)"/><rect x="192" y="80" width="8" height="8" transform="rotate(0,196,84)"/><rect x="200" y="80" width="8" height="8" transform="rotate(0,204,84)"/><rect x="208" y="80" width="8" height="8" transform="rotate(0,212,84)"/><rect x="16" y="88" width="8" height="8" transform="rotate(0,20,92)"/><rect x="24" y="88" width="8" height="8" transform="rotate(0,28,92)"/><rect x="32" y="88" width="8" height="8" transform="rotate(0,36,92)"/><rect x="40" y="88" width="8" height="8" transform="rotate(0,44,92)"/><rect x="48" y="88" width="8" height="8" transform="rotate(0,52,92)"/><rect x="56" y="88" width="8" height="8" transform="rotate(0,60,92)"/><rect x="80" y="88" width="8" height="8" transform="rotate(0,84,92)"/><rect x="96" y="88" width="8" height="8" transform="rotate(0,100,92)"/><rect x="104" y="88" width="8" height="8" transform="rotate(0,108,92)"/><rect x="112" y="88" width="8" height="8" transform="rotate(0,116,92)"/><rect x="152" y="88" width="8" height="8" transform="rotate(0,156,92)"/><rect x="160" y="88" width="8" height="8" transform="rotate(0,164,92)"/><rect x="208" y="88" width="8" height="8" transform="rotate(0,212,92)"/><rect x="16" y="96" width="8" height="8" transform="rotate(0,20,100)"/><rect x="40" y="96" width="8" height="8" transform="rotate(0,44,100)"/><rect x="48" y="96" width="8" height="8" transform="rotate(0,52,100)"/><rect x="56" y="96" width="8" height="8" transform="rotate(0,60,100)"/><rect x="64" y="96" width="8" height="8" transform="rotate(0,68,100)"/><rect x="80" y="96" width="8" height="8" transform="rotate(0,84,100)"/><rect x="104" y="96" width="8" height="8" transform="rotate(0,108,100)"/><rect x="120" y="96" width="8" height="8" transform="rotate(0,124,100)"/><rect x="160" y="96" width="8" height="8" transform="rotate(0,164,100)"/><rect x="168" y="96" width="8" height="8" transform="rotate(0,172,100)"/><rect x="192" y="96" width="8" height="8" transform="rotate(0,196,100)"/><rect x="200" y="96" width="8" height="8" transform="rotate(0,204,100)"/><rect x="208" y="96" width="8" height="8" transform="rotate(0,212,100)"/><rect x="16" y="104" width="8" height="8" transform="rotate(0,20,108)"/><rect x="24" y="104" width="8" height="8" transform="rotate(0,28,108)"/><rect x="32" y="104" width="8" height="8" transform="rotate(0,36,108)"/><rect x="40" y="104" width="8" height="8" transform="rotate(0,44,108)"/><rect x="96" y="104" width="8" height="8" transform="rotate(0,100,108)"/><rect x="152" y="104" width="8" height="8" transform="rotate(0,156,108)"/><rect x="160" y="104" width="8" height="8" transform="rotate(0,164,108)"/><rect x="200" y="104" width="8" height="8" transform="rotate(0,204,108)"/><rect x="56" y="112" width="8" height="8" transform="rotate(0,60,116)"/><rect x="64" y="112" width="8" height="8" transform="rotate(0,68,116)"/><rect x="72" y="112" width="8" height="8" transform="rotate(0,76,116)"/><rect x="96" y="112" width="8" height="8" transform="rotate(0,100,116)"/><rect x="104" y="112" width="8" height="8" transform="rotate(0,108,116)"/><rect x="136" y="112" width="8" height="8" transform="rotate(0,140,116)"/><rect x="144" y="112" width="8" height="8" transform="rotate(0,148,116)"/><rect x="160" y="112" width="8" height="8" transform="rotate(0,164,116)"/><rect x="168" y="112" width="8" height="8" transform="rotate(0,172,116)"/><rect x="184" y="112" width="8" height="8" transform="rotate(0,188,116)"/><rect x="200" y="112" width="8" height="8" transform="rotate(0,204,116)"/><rect x="208" y="112" width="8" height="8" transform="rotate(0,212,116)"/><rect x="40" y="120" width="8" height="8" transform="rotate(0,44,124)"/><rect x="56" y="120" width="8" height="8" transform="rotate(0,60,124)"/><rect x="80" y="120" width="8" height="8" transform="rotate(0,84,124)"/><rect x="96" y="120" width="8" height="8" transform="rotate(0,100,124)"/><rect x="104" y="120" width="8" height="8" transform="rotate(0,108,124)"/><rect x="112" y="120" width="8" height="8" transform="rotate(0,116,124)"/><rect x="120" y="120" width="8" height="8" transform="rotate(0,124,124)"/><rect x="144" y="120" width="8" height="8" transform="rotate(0,148,124)"/><rect x="152" y="120" width="8" height="8" transform="rotate(0,156,124)"/><rect x="160" y="120" width="8" height="8" transform="rotate(0,164,124)"/><rect x="184" y="120" width="8" height="8" transform="rotate(0,188,124)"/><rect x="208" y="120" width="8" height="8" transform="rotate(0,212,124)"/><rect x="16" y="128" width="8" height="8" transform="rotate(0,20,132)"/><rect x="40" y="128" width="8" height="8" transform="rotate(0,44,132)"/><rect x="48" y="128" width="8" height="8" transform="rotate(0,52,132)"/><rect x="56" y="128" width="8" height="8" transform="rotate(0,60,132)"/><rect x="64" y="128" width="8" height="8" transform="rotate(0,68,132)"/><rect x="72" y="128" width="8" height="8" transform="rotate(0,76,132)"/><rect x="80" y="128" width="8" height="8" transform="rotate(0,84,132)"/><rect x="88" y="128" width="8" height="8" transform="rotate(0,92,132)"/><rect x="112" y="128" width="8" height="8" transform="rotate(0,116,132)"/><rect x="128" y="128" width="8" height="8" transform="rotate(0,132,132)"/><rect x="144" y="128" width="8" height="8" transform="rotate(0,148,132)"/><rect x="152" y="128" width="8" height="8" transform="rotate(0,156,132)"/><rect x="168" y="128" width="8" height="8" transform="rotate(0,172,132)"/><rect x="192" y="128" width="8" height="8" transform="rotate(0,196,132)"/><rect x="200" y="128" width="8" height="8" transform="rotate(0,204,132)"/><rect x="208" y="128" width="8" height="8" transform="rotate(0,212,132)"/><rect x="24" y="136" width="8" height="8" transform="rotate(0,28,140)"/><rect x="32" y="136" width="8" height="8" transform="rotate(0,36,140)"/><rect x="48" y="136" width="8" height="8" transform="rotate(0,52,140)"/><rect x="80" y="136" width="8" height="8" transform="rotate(0,84,140)"/><rect x="88" y="136" width="8" height="8" transform="rotate(0,92,140)"/><rect x="104" y="136" width="8" height="8" transform="rotate(0,108,140)"/><rect x="120" y="136" width="8" height="8" transform="rotate(0,124,140)"/><rect x="144" y="136" width="8" height="8" transform="rotate(0,148,140)"/><rect x="176" y="136" width="8" height="8" transform="rotate(0,180,140)"/><rect x="200" y="136" width="8" height="8" transform="rotate(0,204,140)"/><rect x="16" y="144" width="8" height="8" transform="rotate(0,20,148)"/><rect x="32" y="144" width="8" height="8" transform="rotate(0,36,148)"/><rect x="40" y="144" width="8" height="8" transform="rotate(0,44,148)"/><rect x="48" y="144" width="8" height="8" transform="rotate(0,52,148)"/><rect x="64" y="144" width="8" height="8" transform="rotate(0,68,148)"/><rect x="72" y="144" width="8" height="8" transform="rotate(0,76,148)"/><rect x="88" y="144" width="8" height="8" transform="rotate(0,92,148)"/><rect x="96" y="144" width="8" height="8" transform="rotate(0,100,148)"/><rect x="104" y="144" width="8" height="8" transform="rotate(0,108,148)"/><rect x="120" y="144" width="8" height="8" transform="rotate(0,124,148)"/><rect x="136" y="144" width="8" height="8" transform="rotate(0,140,148)"/><rect x="144" y="144" width="8" height="8" transform="rotate(0,148,148)"/><rect x="152" y="144" width="8" height="8" transform="rotate(0,156,148)"/><rect x="160" y="144" width="8" height="8" transform="rotate(0,164,148)"/><rect x="168" y="144" width="8" height="8" transform="rotate(0,172,148)"/><rect x="176" y="144" width="8" height="8" transform="rotate(0,180,148)"/><rect x="184" y="144" width="8" height="8" transform="rotate(0,188,148)"/><rect x="80" y="152" width="8" height="8" transform="rotate(0,84,156)"/><rect x="88" y="152" width="8" height="8" transform="rotate(0,92,156)"/><rect x="104" y="152" width="8" height="8" transform="rotate(0,108,156)"/><rect x="120" y="152" width="8" height="8" transform="rotate(0,124,156)"/><rect x="136" y="152" width="8" height="8" transform="rotate(0,140,156)"/><rect x="144" y="152" width="8" height="8" transform="rotate(0,148,156)"/><rect x="176" y="152" width="8" height="8" transform="rotate(0,180,156)"/><rect x="184" y="152" width="8" height="8" transform="rotate(0,188,156)"/><rect x="200" y="152" width="8" height="8" transform="rotate(0,204,156)"/><rect x="208" y="152" width="8" height="8" transform="rotate(0,212,156)"/><rect x="80" y="160" width="8" height="8" transform="rotate(0,84,164)"/><rect x="96" y="160" width="8" height="8" transform="rotate(0,100,164)"/><rect x="104" y="160" width="8" height="8" transform="rotate(0,108,164)"/><rect x="120" y="160" width="8" height="8" transform="rotate(0,124,164)"/><rect x="136" y="160" width="8" height="8" transform="rotate(0,140,164)"/><rect x="144" y="160" width="8" height="8" transform="rotate(0,148,164)"/><rect x="160" y="160" width="8" height="8" transform="rotate(0,164,164)"/><rect x="176" y="160" width="8" height="8" transform="rotate(0,180,164)"/><rect x="184" y="160" width="8" height="8" transform="rotate(0,188,164)"/><rect x="200" y="160" width="8" height="8" transform="rotate(0,204,164)"/><rect x="208" y="160" width="8" height="8" transform="rotate(0,212,164)"/><rect x="88" y="168" width="8" height="8" transform="rotate(0,92,172)"/><rect x="96" y="168" width="8" height="8" transform="rotate(0,100,172)"/><rect x="104" y="168" width="8" height="8" transform="rotate(0,108,172)"/><rect x="112" y="168" width="8" height="8" transform="rotate(0,116,172)"/><rect x="128" y="168" width="8" height="8" transform="rotate(0,132,172)"/><rect x="144" y="168" width="8" height="8" transform="rotate(0,148,172)"/><rect x="176" y="168" width="8" height="8" transform="rotate(0,180,172)"/><rect x="184" y="168" width="8" height="8" transform="rotate(0,188,172)"/><rect x="208" y="168" width="8" height="8" transform="rotate(0,212,172)"/><rect x="80" y="176" width="8" height="8" transform="rotate(0,84,180)"/><rect x="88" y="176" width="8" height="8" transform="rotate(0,92,180)"/><rect x="96" y="176" width="8" height="8" transform="rotate(0,100,180)"/><rect x="112" y="176" width="8" height="8" transform="rotate(0,116,180)"/><rect x="128" y="176" width="8" height="8" transform="rotate(0,132,180)"/><rect x="144" y="176" width="8" height="8" transform="rotate(0,148,180)"/><rect x="152" y="176" width="8" height="8" transform="rotate(0,156,180)"/><rect x="160" y="176" width="8" height="8" transform="rotate(0,164,180)"/><rect x="168" y="176" width="8" height="8" transform="rotate(0,172,180)"/><rect x="176" y="176" width="8" height="8" transform="rotate(0,180,180)"/><rect x="184" y="176" width="8" height="8" transform="rotate(0,188,180)"/><rect x="208" y="176" width="8" height="8" transform="rotate(0,212,180)"/><rect x="96" y="184" width="8" height="8" transform="rotate(0,100,188)"/><rect x="120" y="184" width="8" height="8" transform="rotate(0,124,188)"/><rect x="128" y="184" width="8" height="8" transform="rotate(0,132,188)"/><rect x="168" y="184" width="8" height="8" transform="rotate(0,172,188)"/><rect x="176" y="184" width="8" height="8" transform="rotate(0,180,188)"/><rect x="184" y="184" width="8" height="8" transform="rotate(0,188,188)"/><rect x="192" y="184" width="8" height="8" transform="rotate(0,196,188)"/><rect x="80" y="192" width="8" height="8" transform="rotate(0,84,196)"/><rect x="96" y="192" width="8" height="8" transform="rotate(0,100,196)"/><rect x="104" y="192" width="8" height="8" transform="rotate(0,108,196)"/><rect x="112" y="192" width="8" height="8" transform="rotate(0,116,196)"/><rect x="120" y="192" width="8" height="8" transform="rotate(0,124,196)"/><rect x="128" y="192" width="8" height="8" transform="rotate(0,132,196)"/><rect x="144" y="192" width="8" height="8" transform="rotate(0,148,196)"/><rect x="176" y="192" width="8" height="8" transform="rotate(0,180,196)"/><rect x="208" y="192" width="8" height="8" transform="rotate(0,212,196)"/><rect x="80" y="200" width="8" height="8" transform="rotate(0,84,204)"/><rect x="96" y="200" width="8" height="8" transform="rotate(0,100,204)"/><rect x="136" y="200" width="8" height="8" transform="rotate(0,140,204)"/><rect x="144" y="200" width="8" height="8" transform="rotate(0,148,204)"/><rect x="152" y="200" width="8" height="8" transform="rotate(0,156,204)"/><rect x="176" y="200" width="8" height="8" transform="rotate(0,180,204)"/><rect x="184" y="200" width="8" height="8" transform="rotate(0,188,204)"/><rect x="200" y="200" width="8" height="8" transform="rotate(0,204,204)"/><rect x="96" y="208" width="8" height="8" transform="rotate(0,100,212)"/><rect x="104" y="208" width="8" height="8" transform="rotate(0,108,212)"/><rect x="112" y="208" width="8" height="8" transform="rotate(0,116,212)"/><rect x="120" y="208" width="8" height="8" transform="rotate(0,124,212)"/><rect x="136" y="208" width="8" height="8" transform="rotate(0,140,212)"/><rect x="144" y="208" width="8" height="8" transform="rotate(0,148,212)"/><rect x="168" y="208" width="8" height="8" transform="rotate(0,172,212)"/><rect x="200" y="208" width="8" height="8" transform="rotate(0,204,212)"/><rect x="208" y="208" width="8" height="8" transform="rotate(0,212,212)"/></g></svg>